<svg width="612" height="334" viewBox="0 0 612 334" fill="none" xmlns="http://www.w3.org/2000/svg">
<ellipse cx="305.913" cy="310.082" rx="305.255" ry="23.1514" fill="#E3E7EF"/>
<g clip-path="url(#clip0)">
<path d="M264.24 120.069L261.325 117.668C262.182 116.639 281.389 94.1737 299.396 91.0869C312.086 89.029 454.424 88.1715 460.427 88C460.77 88 466.943 88 475.003 91.4298C482.549 94.5167 493.353 101.205 501.928 115.096L498.669 117.154C483.235 92.1158 460.598 91.7728 460.427 91.7728C458.883 91.7728 312.429 92.6303 300.082 94.6882C293.222 95.8886 284.819 100.519 275.902 108.236C269.213 114.238 264.412 119.897 264.24 120.069Z" fill="#222222"/>
<g opacity="0.6">
<path opacity="0.6" d="M484.435 96.9175C481.177 94.6881 477.918 93.1447 475.175 91.9442C467.114 88.6859 460.941 88.5144 460.598 88.5144C454.596 88.5144 312.257 89.3719 299.567 91.6013C292.021 92.8017 284.304 97.432 277.788 102.577C278.302 102.577 278.817 102.577 279.16 102.577C285.333 97.9464 292.536 93.8306 299.396 92.8017C312.086 90.7438 454.424 89.8863 460.426 89.7148C460.769 89.7148 466.943 89.7148 475.003 93.1447C477.404 94.1736 479.976 95.3741 482.72 97.089C483.406 97.089 483.921 97.089 484.435 96.9175Z" fill="#B6B6B6"/>
</g>
<path d="M421.155 293.276C421.155 296.191 418.754 298.592 415.839 298.592H201.646C198.73 298.592 196.33 296.191 196.33 293.276V283.672C196.33 280.757 198.73 278.356 201.646 278.356H415.668C418.583 278.356 420.984 280.757 420.984 283.672V293.276H421.155Z" fill="black"/>
<path d="M427.5 297.048C427.5 299.278 425.099 300.993 422.184 300.993H194.786C191.871 300.993 189.47 299.278 189.47 297.048C189.47 294.819 191.871 293.104 194.786 293.104H422.355C425.099 293.104 427.5 294.819 427.5 297.048Z" fill="#515155"/>
<path opacity="0.4" d="M426.986 295.505C426.129 294.133 424.414 293.104 422.184 293.104H194.786C192.557 293.104 190.842 294.133 189.984 295.505H426.986Z" fill="#C4C4C4"/>
<path d="M559.206 175.289L183.468 185.579C183.468 185.579 117.1 195.697 57.9356 225.022C53.1338 229.138 52.6194 232.739 51.9334 237.369C51.7619 238.913 51.4189 240.456 51.2474 241.828C49.704 249.202 46.1027 265.494 52.7909 272.697C62.5659 283.329 56.2207 276.812 68.3966 290.875C68.7396 291.389 69.4256 291.389 69.94 291.561L527.995 290.36L568.124 277.498L576.012 253.833L568.295 239.084L559.206 175.289Z" fill="#DE2019"/>
<path d="M49.0182 253.318C46.1028 270.639 56.0493 276.641 68.2252 290.875C68.5682 291.389 69.2542 291.389 69.7687 291.561L527.823 290.36L567.952 277.498L575.841 253.832L568.124 239.084C567.952 239.084 50.7331 243.714 49.0182 253.318Z" fill="#C31D13"/>
<path d="M52.619 272.697C62.394 283.329 56.0488 276.812 68.2247 290.875C68.5677 291.389 69.2537 291.389 69.7681 291.561L527.823 290.36L567.952 277.498L572.068 265.151C571.896 265.151 50.9041 270.639 52.619 272.697Z" fill="#C31D13"/>
<path d="M527.137 131.73C500.727 104.635 500.041 97.4321 477.576 97.2606C460.598 97.2606 456.825 95.7172 439.848 95.7172C416.696 95.8887 393.373 95.7172 370.222 96.5746C347.242 97.4321 324.091 98.2895 301.111 100.519C284.648 102.062 270.242 104.635 268.87 105.149C241.946 114.067 165.632 202.214 165.632 202.214L345.699 199.984L559.377 175.118C559.377 175.289 552.689 157.797 527.137 131.73Z" fill="#DE2019"/>
<path d="M500.384 147.679C466.6 104.12 460.084 100.519 452.71 100.176C434.531 99.147 427.157 100.176 408.979 100.176C386.514 100.176 295.452 103.263 274.701 111.666C248.634 122.298 234.744 144.249 217.251 167.058C214.679 170.488 210.22 174.432 208.505 178.376C208.505 178.376 204.047 188.323 212.964 189.18C212.964 189.18 411.38 173.917 476.718 167.229C486.836 166.2 496.44 156.082 499.87 151.452C500.384 150.423 500.556 149.051 500.384 147.679Z" fill="black"/>
<path d="M196.844 178.719C216.566 152.995 249.321 124.699 256.009 118.868C260.124 115.267 259.953 112.352 259.096 110.465C237.145 124.871 201.646 162.427 181.238 184.893C187.926 185.579 196.844 178.719 196.844 178.719Z" fill="#00384B"/>
<path d="M284.305 111.837C284.305 111.837 267.327 115.61 255.666 126.929C244.004 138.247 213.993 180.777 213.993 180.777C213.993 180.777 206.79 188.151 218.28 186.265C223.082 185.579 268.699 181.291 319.804 176.833C321.69 147.336 327.521 122.641 332.151 106.864C313.973 108.236 297.167 109.779 284.305 111.837Z" fill="#00384B"/>
<path d="M342.269 106.178C340.211 123.499 337.81 148.879 338.153 175.289C378.282 171.859 419.097 168.258 444.135 166.029C433.331 137.561 423.899 116.468 417.382 102.748C396.289 103.263 368.679 104.463 342.269 106.178Z" fill="#00384B"/>
<path d="M495.068 146.136C493.525 142.191 464.028 102.748 452.538 102.234C449.451 102.062 439.676 102.234 425.957 102.577C437.447 124.013 448.251 145.107 457.855 164.828C465.057 164.142 469.344 163.799 469.344 163.799C469.344 163.799 476.376 163.628 481.52 160.198C486.837 156.768 496.612 150.08 495.068 146.136Z" fill="#00384B"/>
<path d="M98.0649 273.211C98.0649 248.859 118.815 229.138 144.539 229.138C170.091 229.138 191.013 248.859 191.013 273.211C191.013 279.728 189.47 285.901 186.898 291.561H195.301C198.559 284.358 200.445 276.469 200.445 268.066C200.445 237.198 175.408 212.16 144.539 212.16C113.671 212.16 88.6328 237.198 88.6328 268.066C88.6328 276.469 90.5192 284.529 93.7776 291.561H102.181C99.6083 285.901 98.0649 279.728 98.0649 273.211Z" fill="#201E1E"/>
<path d="M200.445 267.895C200.445 237.026 175.408 211.988 144.539 211.988C113.671 211.988 88.6328 237.026 88.6328 267.895C88.6328 276.298 90.5192 284.358 93.7776 291.389H95.1495C92.4056 284.872 90.8622 277.841 90.8622 270.296C90.8622 240.628 114.871 216.619 144.539 216.619C174.207 216.619 198.216 240.628 198.216 270.296C198.216 277.841 196.673 284.872 193.929 291.389H195.301C198.559 284.358 200.445 276.298 200.445 267.895Z" fill="#201E1E"/>
<path d="M144.539 228.966C118.987 228.966 98.0649 248.688 98.0649 273.04C98.0649 279.556 99.6084 285.73 102.181 291.389H186.555C189.299 285.73 190.67 279.556 190.67 273.04C190.842 248.688 170.091 228.966 144.539 228.966Z" fill="black"/>
<path d="M144.539 317.284C166.323 317.284 183.982 299.625 183.982 277.841C183.982 256.058 166.323 238.398 144.539 238.398C122.755 238.398 105.096 256.058 105.096 277.841C105.096 299.625 122.755 317.284 144.539 317.284Z" fill="#363635"/>
<path d="M144.539 317.284C166.323 317.284 183.982 299.625 183.982 277.841C183.982 256.058 166.323 238.398 144.539 238.398C122.755 238.398 105.096 256.058 105.096 277.841C105.096 299.625 122.755 317.284 144.539 317.284Z" fill="#222222"/>
<path d="M144.539 304.594C159.314 304.594 171.292 292.616 171.292 277.841C171.292 263.066 159.314 251.089 144.539 251.089C129.764 251.089 117.786 263.066 117.786 277.841C117.786 292.616 129.764 304.594 144.539 304.594Z" fill="black"/>
<path d="M144.539 302.365C158.083 302.365 169.062 291.385 169.062 277.841C169.062 264.298 158.083 253.318 144.539 253.318C130.995 253.318 120.016 264.298 120.016 277.841C120.016 291.385 130.995 302.365 144.539 302.365Z" fill="#D5D3CB"/>
<path d="M156.715 263.265C156.715 262.922 156.715 262.75 156.543 262.407C153.971 260.006 150.541 258.634 146.94 258.291C146.597 258.291 146.254 258.463 146.082 258.806C145.911 258.977 145.911 259.149 145.739 259.32V272.868C145.739 273.04 145.911 273.211 146.082 273.383C146.082 273.383 146.254 273.383 146.254 273.554C146.425 273.554 146.768 273.554 146.94 273.383L156.715 263.608C156.715 263.436 156.715 263.436 156.715 263.265Z" fill="#4C4C49"/>
<path d="M163.917 276.641C164.089 276.469 164.26 276.298 164.432 275.955C164.26 272.525 162.888 269.095 160.488 266.18C160.145 266.008 159.802 265.837 159.459 265.837C159.287 265.837 158.944 266.008 158.773 266.008L149.169 275.612C149.169 275.784 148.998 275.955 148.998 276.126V276.298C149.169 276.469 149.341 276.641 149.512 276.641H163.231C163.746 276.812 163.746 276.812 163.917 276.641Z" fill="#4C4C49"/>
<path d="M159.287 290.703C159.63 290.703 159.802 290.703 160.145 290.532C162.546 287.959 164.089 284.701 164.432 280.928C164.432 280.585 164.261 280.242 164.089 279.899C163.918 279.728 163.746 279.728 163.575 279.556L150.027 279.385C149.855 279.385 149.684 279.556 149.512 279.728C149.512 279.728 149.512 279.899 149.341 279.899C149.341 280.071 149.341 280.414 149.512 280.585L159.116 290.532C158.944 290.703 159.116 290.703 159.287 290.703Z" fill="#4C4C49"/>
<path d="M146.082 296.877C146.254 297.048 146.425 297.22 146.768 297.391C150.198 297.22 153.628 295.848 156.543 293.276C156.715 292.933 156.886 292.59 156.886 292.247C156.886 292.075 156.715 291.732 156.715 291.561L146.94 282.129C146.768 282.129 146.597 281.957 146.425 281.957C146.425 281.957 146.254 281.957 146.254 282.129C146.082 282.3 145.911 282.472 145.911 282.643L146.082 296.362C145.911 296.534 145.911 296.705 146.082 296.877Z" fill="#4C4C49"/>
<path d="M132.191 263.265C132.191 262.922 132.191 262.75 132.363 262.407C134.935 260.006 138.365 258.634 141.966 258.291C142.309 258.291 142.652 258.463 142.824 258.806C142.995 258.977 142.995 259.149 143.167 259.32V272.868C143.167 273.04 142.995 273.211 142.824 273.383C142.824 273.383 142.652 273.383 142.652 273.554C142.481 273.554 142.138 273.554 141.966 273.383L132.191 263.608C132.363 263.436 132.191 263.436 132.191 263.265Z" fill="#4C4C49"/>
<path d="M125.16 276.641C124.989 276.469 124.817 276.298 124.646 275.955C124.817 272.525 126.189 269.095 128.59 266.18C128.933 266.008 129.276 265.837 129.619 265.837C129.791 265.837 130.134 266.008 130.305 266.008L139.909 275.612C139.909 275.784 140.08 275.955 140.08 276.126V276.298C139.909 276.469 139.737 276.641 139.566 276.641H125.846C125.332 276.812 125.16 276.812 125.16 276.641Z" fill="#4C4C49"/>
<path d="M129.791 290.703C129.448 290.703 129.276 290.703 128.933 290.532C126.532 287.959 124.989 284.701 124.646 280.928C124.646 280.585 124.817 280.242 124.989 279.899C125.16 279.728 125.332 279.728 125.503 279.556L139.051 279.385C139.223 279.385 139.394 279.556 139.566 279.728C139.566 279.728 139.566 279.899 139.737 279.899C139.737 280.071 139.737 280.414 139.566 280.585L129.962 290.532C129.962 290.703 129.962 290.703 129.791 290.703Z" fill="#4C4C49"/>
<path d="M142.995 296.877C142.824 297.048 142.652 297.22 142.309 297.391C138.88 297.22 135.45 295.848 132.534 293.276C132.363 292.933 132.191 292.59 132.191 292.247C132.191 292.075 132.363 291.732 132.363 291.561L142.138 282.129C142.309 282.129 142.481 281.957 142.652 281.957C142.652 281.957 142.824 281.957 142.824 282.129C142.995 282.3 142.995 282.472 143.167 282.643L142.995 296.362C142.995 296.534 142.995 296.705 142.995 296.877Z" fill="#4C4C49"/>
<path d="M144.539 285.044C148.517 285.044 151.742 281.819 151.742 277.841C151.742 273.863 148.517 270.639 144.539 270.639C140.561 270.639 137.336 273.863 137.336 277.841C137.336 281.819 140.561 285.044 144.539 285.044Z" fill="#D5D3CB"/>
<path d="M148.312 275.097C148.786 275.097 149.17 274.713 149.17 274.24C149.17 273.766 148.786 273.382 148.312 273.382C147.838 273.382 147.455 273.766 147.455 274.24C147.455 274.713 147.838 275.097 148.312 275.097Z" fill="#4C4C49"/>
<path d="M144.539 273.897C145.013 273.897 145.397 273.513 145.397 273.04C145.397 272.566 145.013 272.182 144.539 272.182C144.066 272.182 143.682 272.566 143.682 273.04C143.682 273.513 144.066 273.897 144.539 273.897Z" fill="#4C4C49"/>
<path d="M140.766 275.269C141.24 275.269 141.624 274.885 141.624 274.411C141.624 273.938 141.24 273.554 140.766 273.554C140.293 273.554 139.909 273.938 139.909 274.411C139.909 274.885 140.293 275.269 140.766 275.269Z" fill="#4C4C49"/>
<path d="M148.312 282.986C148.786 282.986 149.17 282.602 149.17 282.129C149.17 281.655 148.786 281.271 148.312 281.271C147.838 281.271 147.455 281.655 147.455 282.129C147.455 282.602 147.838 282.986 148.312 282.986Z" fill="#4C4C49"/>
<path d="M150.026 279.213C150.5 279.213 150.884 278.829 150.884 278.356C150.884 277.882 150.5 277.498 150.026 277.498C149.553 277.498 149.169 277.882 149.169 278.356C149.169 278.829 149.553 279.213 150.026 279.213Z" fill="#4C4C49"/>
<path d="M139.051 279.213C139.525 279.213 139.909 278.829 139.909 278.356C139.909 277.882 139.525 277.498 139.051 277.498C138.578 277.498 138.194 277.882 138.194 278.356C138.194 278.829 138.578 279.213 139.051 279.213Z" fill="#4C4C49"/>
<path d="M144.539 284.187C145.013 284.187 145.397 283.803 145.397 283.329C145.397 282.856 145.013 282.472 144.539 282.472C144.066 282.472 143.682 282.856 143.682 283.329C143.682 283.803 144.066 284.187 144.539 284.187Z" fill="#4C4C49"/>
<path d="M140.766 282.815C141.24 282.815 141.624 282.431 141.624 281.957C141.624 281.484 141.24 281.1 140.766 281.1C140.293 281.1 139.909 281.484 139.909 281.957C139.909 282.431 140.293 282.815 140.766 282.815Z" fill="#4C4C49"/>
<path d="M96.5212 270.982C96.6927 268.238 97.0357 265.494 97.2072 262.75H46.6171C46.1026 262.75 45.4167 262.922 45.0737 263.093C44.2162 263.608 43.8733 264.122 43.5303 264.808L43.7018 275.783C43.7018 275.783 54.1628 291.389 61.3654 293.79C68.5681 296.02 73.3698 295.505 73.3698 295.505L94.2918 295.677C94.2918 294.476 96.3497 274.755 96.5212 270.982Z" fill="#201E1E"/>
<path opacity="0.6" d="M85.2028 262.75H46.6171C46.1026 262.75 45.4167 262.922 45.0737 263.093C44.2162 263.608 43.8733 264.122 43.5303 264.808L43.7018 274.583C43.7018 274.755 85.0313 265.494 85.2028 262.75Z" fill="#222222"/>
<path d="M203.361 179.405L193.414 186.093C193.414 186.093 188.784 189.352 192.214 192.781C192.214 192.781 193.757 194.668 198.045 194.668C202.16 194.839 210.907 192.781 210.907 192.781L203.361 179.405Z" fill="black"/>
<path d="M220.853 176.833C218.795 171.173 208.506 172.031 208.506 172.031C204.047 172.374 200.788 176.833 198.216 181.634C195.301 187.122 197.53 198.269 202.846 197.24C209.02 196.04 206.619 196.897 216.737 193.982C219.481 193.124 223.254 183.692 220.853 176.833Z" fill="#222222"/>
<path d="M220.853 176.833C220.681 176.318 220.338 175.804 220.167 175.461C220.338 178.033 219.652 180.777 217.938 182.835C215.708 185.407 212.278 186.779 209.02 187.637C207.134 188.151 205.076 188.837 203.189 189.18C201.646 189.523 199.416 189.866 198.044 189.009C197.701 188.837 197.359 188.494 197.187 188.323C197.359 193.124 199.588 197.755 203.189 197.069C209.363 195.868 206.962 196.726 217.08 193.81C219.481 193.124 223.254 183.692 220.853 176.833Z" fill="#141412"/>
<path d="M164.432 208.387L551.66 161.57L559.378 174.775L559.892 179.92L547.888 190.895L164.432 208.387Z" fill="#DE2019"/>
<path d="M303.169 192.267L315.859 190.895C315.859 190.895 318.431 190.724 317.574 192.953C316.717 195.182 316.545 195.525 316.545 195.525C316.545 195.525 316.374 196.726 313.973 197.24C311.572 197.926 296.995 199.984 296.995 199.984C296.995 199.984 294.937 200.327 291.679 199.127C288.42 197.755 288.249 195.011 289.278 194.325C289.278 194.325 289.278 193.982 291.336 193.467C293.222 193.124 303.169 192.267 303.169 192.267Z" fill="#404744"/>
<path d="M292.536 193.982L313.801 191.581C313.801 191.581 316.202 191.409 316.545 192.267C317.059 193.296 315.859 194.325 312.601 194.839C309.342 195.354 296.995 197.24 296.995 197.24C296.995 197.24 292.365 197.926 290.821 196.897C289.278 195.868 289.792 194.325 292.536 193.982Z" fill="#B6B6B6"/>
<path d="M436.246 177.69L448.937 176.318C448.937 176.318 451.509 176.147 450.652 178.376C449.794 180.606 449.623 180.949 449.623 180.949C449.623 180.949 449.451 182.149 447.05 182.663C444.649 183.349 430.073 185.407 430.073 185.407C430.073 185.407 428.015 185.75 424.756 184.55C421.498 183.178 421.327 180.434 422.355 179.748C422.355 179.748 422.355 179.405 424.413 178.891C426.3 178.548 436.246 177.69 436.246 177.69Z" fill="#404744"/>
<path d="M425.614 179.234L446.879 176.833C446.879 176.833 449.28 176.661 449.623 177.519C450.137 178.548 448.937 179.577 445.678 180.091C442.42 180.606 430.073 182.492 430.073 182.492C430.073 182.492 425.442 183.178 423.899 182.149C422.355 181.12 422.87 179.748 425.614 179.234Z" fill="#B6B6B6"/>
<path d="M499.013 102.92C492.839 103.091 488.209 104.635 490.781 109.608L538.799 164.657C538.799 164.657 547.373 177.004 555.948 168.773C551.832 161.398 543.257 148.365 526.966 131.73C512.732 116.811 505.872 108.065 499.013 102.92Z" fill="#00384B"/>
<path d="M86.0603 218.334C80.401 217.991 75.4278 217.819 70.283 220.392C65.3098 222.621 58.1071 225.536 55.7062 228.109C54.8488 229.309 54.1628 230.51 53.4768 231.882C52.2764 235.826 51.5904 240.113 51.4189 244.229C51.5904 245.601 51.9334 246.63 52.2764 247.487C53.8198 250.574 70.283 248.173 81.43 239.084C85.0313 237.026 91.7195 218.677 86.0603 218.334Z" fill="#D5D3CB"/>
<path opacity="0.6" d="M81.332 232.165C82.1276 226.537 79.8835 221.567 76.3197 221.064C72.7559 220.56 69.222 224.713 68.4264 230.34C67.6308 235.967 69.8749 240.937 73.4387 241.441C77.0025 241.945 80.5364 237.792 81.332 232.165Z" fill="#E3EDEE"/>
<path d="M64.4191 239.225C64.5364 235.818 62.8667 232.994 60.6896 232.919C58.5125 232.844 56.6526 235.546 56.5352 238.954C56.4179 242.361 58.0876 245.184 60.2647 245.259C62.4418 245.334 64.3018 242.633 64.4191 239.225Z" fill="#E3D8C3"/>
<g opacity="0.4">
<path opacity="0.4" d="M85.0313 218.333C79.8866 218.162 75.0848 218.162 70.283 220.391C65.3098 222.621 58.1071 225.536 55.7062 228.109C54.8488 229.309 54.1628 230.509 53.4768 231.881C52.2764 235.826 51.5904 240.113 51.4189 244.229C51.5904 245.258 51.7619 246.115 51.9334 246.801C59.822 233.939 70.7975 222.964 85.0313 218.333Z" fill="white"/>
</g>
<path d="M76.1135 274.583C81.2583 274.24 85.0311 277.841 84.6881 282.643C84.3451 287.445 79.8864 291.732 74.7416 292.075C69.5969 292.418 58.1069 289.503 58.4499 284.701C58.9644 279.899 70.9688 274.926 76.1135 274.583Z" fill="#222222"/>
<path d="M75.0849 275.612C79.8867 275.269 83.488 278.699 83.1451 283.157C82.8021 287.788 78.6863 291.732 73.8845 292.075C69.0827 292.418 58.1073 289.674 58.4502 285.044C58.7932 280.585 70.2832 275.955 75.0849 275.612Z" fill="black"/>
<path opacity="0.5" d="M204.904 168.944C224.454 146.307 250.178 123.842 256.008 118.868C260.124 115.267 259.953 112.352 259.095 110.465C240.231 122.813 211.249 152.481 190.499 174.775C195.3 172.717 200.102 170.83 204.904 168.944Z" fill="#00384B"/>
<g opacity="0.5">
<path opacity="0.5" d="M284.305 145.278C297.681 142.363 311.229 139.619 324.605 137.39C326.834 125.385 329.578 115.096 331.979 107.036C313.973 108.407 297.166 109.951 284.305 112.18C284.305 112.18 267.327 115.953 255.665 127.272C249.492 133.274 238.002 148.194 228.741 160.712C246.919 154.367 265.44 149.394 284.305 145.278Z" fill="#00384B"/>
<path opacity="0.5" d="M427.843 125.557C423.899 116.468 420.298 108.922 417.382 102.748C396.289 103.263 368.507 104.463 342.269 106.178C341.24 114.238 340.211 124.013 339.525 134.989C368.85 130.358 398.347 127.271 427.843 125.557Z" fill="#00384B"/>
<path opacity="0.5" d="M462.142 124.185C467.629 124.013 473.117 124.013 478.605 123.842C469.344 113.038 458.54 102.405 452.71 102.234C449.623 102.062 439.848 102.234 426.128 102.577C430.244 110.122 434.189 117.668 438.133 125.214C446.021 124.699 454.082 124.356 462.142 124.185Z" fill="#00384B"/>
</g>
<path opacity="0.5" d="M503.471 124.013C509.131 124.185 514.618 124.185 520.277 124.528C510.331 113.895 504.672 107.207 499.013 103.091C492.839 103.263 488.209 104.806 490.781 109.779L503.471 124.013Z" fill="#00384B"/>
<path d="M427.5 273.211C427.5 248.859 448.251 229.138 473.975 229.138C499.527 229.138 520.449 248.859 520.449 273.211C520.449 279.728 518.906 285.901 516.333 291.561H524.736C527.995 284.358 529.881 276.469 529.881 268.066C529.881 237.198 504.843 212.16 473.975 212.16C443.106 212.16 418.068 237.198 418.068 268.066C418.068 276.469 419.955 284.53 423.213 291.561H431.616C429.044 285.901 427.5 279.728 427.5 273.211Z" fill="#201E1E"/>
<path d="M473.803 228.966C448.251 228.966 427.329 248.688 427.329 273.04C427.329 279.556 428.873 285.73 431.445 291.389H515.819C518.563 285.73 519.935 279.556 519.935 273.04C520.278 248.688 499.527 228.966 473.803 228.966Z" fill="black"/>
<path d="M473.803 317.284C495.587 317.284 513.247 299.625 513.247 277.841C513.247 256.058 495.587 238.398 473.803 238.398C452.02 238.398 434.36 256.058 434.36 277.841C434.36 299.625 452.02 317.284 473.803 317.284Z" fill="#363635"/>
<path d="M473.803 317.284C495.587 317.284 513.247 299.625 513.247 277.841C513.247 256.058 495.587 238.398 473.803 238.398C452.02 238.398 434.36 256.058 434.36 277.841C434.36 299.625 452.02 317.284 473.803 317.284Z" fill="#222222"/>
<path d="M473.803 304.594C488.578 304.594 500.556 292.616 500.556 277.841C500.556 263.066 488.578 251.089 473.803 251.089C459.028 251.089 447.05 263.066 447.05 277.841C447.05 292.616 459.028 304.594 473.803 304.594Z" fill="black"/>
<path d="M473.803 302.365C487.347 302.365 498.326 291.385 498.326 277.841C498.326 264.298 487.347 253.318 473.803 253.318C460.259 253.318 449.28 264.298 449.28 277.841C449.28 291.385 460.259 302.365 473.803 302.365Z" fill="#D5D3CB"/>
<path d="M486.15 263.265C486.15 262.922 486.15 262.75 485.979 262.407C483.406 260.006 479.977 258.634 476.375 258.291C476.032 258.291 475.689 258.463 475.518 258.806C475.346 258.977 475.346 259.149 475.175 259.32V272.868C475.175 273.04 475.346 273.211 475.518 273.383C475.518 273.383 475.689 273.383 475.689 273.554C475.861 273.554 476.204 273.554 476.375 273.383L486.15 263.608C486.15 263.436 486.15 263.436 486.15 263.265Z" fill="#4C4C49"/>
<path d="M493.353 276.641C493.525 276.469 493.696 276.298 493.868 275.955C493.696 272.525 492.324 269.095 489.924 266.18C489.581 266.008 489.238 265.837 488.895 265.837C488.723 265.837 488.38 266.008 488.209 266.008L478.605 275.612C478.605 275.784 478.434 275.955 478.434 276.126V276.298C478.605 276.469 478.777 276.641 478.948 276.641H492.667C493.01 276.812 493.182 276.812 493.353 276.641Z" fill="#4C4C49"/>
<path d="M488.551 290.703C488.894 290.703 489.065 290.703 489.408 290.532C491.809 287.959 493.353 284.701 493.696 280.928C493.696 280.585 493.524 280.242 493.353 279.899C493.181 279.728 493.01 279.728 492.838 279.556L479.29 279.385C479.119 279.385 478.947 279.556 478.776 279.728C478.776 279.728 478.776 279.899 478.604 279.899C478.604 280.071 478.605 280.414 478.776 280.585L488.38 290.532C488.38 290.703 488.551 290.703 488.551 290.703Z" fill="#4C4C49"/>
<path d="M475.518 296.877C475.69 297.048 475.861 297.22 476.204 297.391C479.634 297.22 483.064 295.848 485.979 293.276C486.151 292.933 486.322 292.59 486.322 292.247C486.322 292.075 486.151 291.732 486.151 291.561L476.376 282.129C476.204 282.129 476.033 281.957 475.861 281.957C475.69 281.957 475.69 281.957 475.69 282.129C475.518 282.3 475.347 282.472 475.347 282.643L475.518 296.362C475.347 296.534 475.347 296.705 475.518 296.877Z" fill="#4C4C49"/>
<path d="M461.627 263.265C461.627 262.922 461.627 262.75 461.799 262.407C464.371 260.006 467.801 258.634 471.402 258.291C471.745 258.291 472.088 258.463 472.26 258.806C472.431 258.977 472.431 259.149 472.603 259.32V272.868C472.603 273.04 472.431 273.211 472.26 273.383C472.26 273.383 472.088 273.383 472.088 273.554C471.917 273.554 471.574 273.554 471.402 273.383L461.627 263.608C461.627 263.436 461.627 263.436 461.627 263.265Z" fill="#4C4C49"/>
<path d="M454.425 276.641C454.253 276.469 454.082 276.298 453.91 275.955C454.082 272.525 455.454 269.095 457.854 266.18C458.197 266.008 458.54 265.837 458.883 265.837C459.055 265.837 459.398 266.008 459.569 266.008L469.173 275.612C469.173 275.784 469.344 275.955 469.344 276.126V276.298C469.173 276.469 469.001 276.641 468.83 276.641H455.111C454.768 276.812 454.596 276.812 454.425 276.641Z" fill="#4C4C49"/>
<path d="M459.055 290.703C458.712 290.703 458.54 290.703 458.197 290.532C455.797 287.959 454.253 284.701 453.91 280.928C453.91 280.585 454.082 280.242 454.253 279.899C454.425 279.728 454.596 279.728 454.768 279.556L468.315 279.385C468.487 279.385 468.658 279.556 468.83 279.728C468.83 279.728 468.83 279.899 469.001 279.899C469.001 280.071 469.001 280.414 468.83 280.585L459.226 290.532C459.398 290.703 459.226 290.703 459.055 290.703Z" fill="#4C4C49"/>
<path d="M472.26 296.877C472.088 297.048 471.917 297.22 471.574 297.391C468.144 297.22 464.714 295.848 461.799 293.276C461.627 292.933 461.456 292.59 461.456 292.247C461.456 292.075 461.627 291.732 461.627 291.561L471.402 282.129C471.574 282.129 471.745 281.957 471.917 281.957C471.917 281.957 472.088 281.957 472.088 282.129C472.26 282.3 472.26 282.472 472.431 282.643L472.26 296.362C472.431 296.534 472.431 296.705 472.26 296.877Z" fill="#4C4C49"/>
<path d="M473.803 285.044C477.781 285.044 481.005 281.819 481.005 277.841C481.005 273.863 477.781 270.639 473.803 270.639C469.825 270.639 466.6 273.863 466.6 277.841C466.6 281.819 469.825 285.044 473.803 285.044Z" fill="#D5D3CB"/>
<path d="M477.576 275.097C478.049 275.097 478.433 274.713 478.433 274.24C478.433 273.766 478.049 273.382 477.576 273.382C477.102 273.382 476.718 273.766 476.718 274.24C476.718 274.713 477.102 275.097 477.576 275.097Z" fill="#4C4C49"/>
<path d="M473.975 273.897C474.448 273.897 474.832 273.513 474.832 273.04C474.832 272.566 474.448 272.182 473.975 272.182C473.501 272.182 473.117 272.566 473.117 273.04C473.117 273.513 473.501 273.897 473.975 273.897Z" fill="#4C4C49"/>
<path d="M470.202 275.269C470.676 275.269 471.06 274.885 471.06 274.411C471.06 273.938 470.676 273.554 470.202 273.554C469.729 273.554 469.345 273.938 469.345 274.411C469.345 274.885 469.729 275.269 470.202 275.269Z" fill="#4C4C49"/>
<path d="M477.576 282.986C478.049 282.986 478.433 282.602 478.433 282.129C478.433 281.655 478.049 281.271 477.576 281.271C477.102 281.271 476.718 281.655 476.718 282.129C476.718 282.602 477.102 282.986 477.576 282.986Z" fill="#4C4C49"/>
<path d="M479.462 279.213C479.936 279.213 480.319 278.829 480.319 278.356C480.319 277.882 479.936 277.498 479.462 277.498C478.988 277.498 478.604 277.882 478.604 278.356C478.604 278.829 478.988 279.213 479.462 279.213Z" fill="#4C4C49"/>
<path d="M468.315 279.213C468.789 279.213 469.173 278.829 469.173 278.356C469.173 277.882 468.789 277.498 468.315 277.498C467.842 277.498 467.458 277.882 467.458 278.356C467.458 278.829 467.842 279.213 468.315 279.213Z" fill="#4C4C49"/>
<path d="M473.975 284.187C474.448 284.187 474.832 283.803 474.832 283.329C474.832 282.856 474.448 282.472 473.975 282.472C473.501 282.472 473.117 282.856 473.117 283.329C473.117 283.803 473.501 284.187 473.975 284.187Z" fill="#4C4C49"/>
<path d="M470.202 282.815C470.676 282.815 471.06 282.431 471.06 281.957C471.06 281.484 470.676 281.1 470.202 281.1C469.729 281.1 469.345 281.484 469.345 281.957C469.345 282.431 469.729 282.815 470.202 282.815Z" fill="#4C4C49"/>
<path d="M529.71 267.895C529.71 237.026 504.672 211.988 473.803 211.988C442.935 211.988 417.897 237.026 417.897 267.895C417.897 276.298 419.783 284.358 423.042 291.389H424.414C421.67 284.872 420.126 277.841 420.126 270.296C420.126 240.628 444.135 216.619 473.803 216.619C503.471 216.619 527.48 240.628 527.48 270.296C527.48 277.841 525.937 284.872 523.193 291.389H524.565C527.995 284.358 529.71 276.298 529.71 267.895Z" fill="#201E1E"/>
<path d="M491.81 113.038C491.81 113.038 484.95 105.492 494.382 103.091C499.698 101.719 502.442 103.777 509.473 106.521L513.418 108.236C515.476 109.093 496.44 118.182 496.44 118.182L491.81 113.038Z" fill="#DE2019"/>
<path d="M513.417 108.236L509.473 106.521C503.128 104.12 500.384 102.062 496.097 102.748C498.841 103.434 501.584 105.149 506.043 107.036L509.988 109.093C511.188 109.779 504.328 113.895 499.012 116.982C503.985 114.41 514.961 108.922 513.417 108.236Z" fill="#C31D13"/>
<path d="M556.976 245.429L566.58 244.915C566.58 244.915 569.152 244.743 570.181 246.458L573.439 252.975C573.439 252.975 573.782 254.004 572.067 254.004C570.524 254.004 562.464 254.004 562.464 254.004C562.464 254.004 560.92 254.175 559.891 253.318C558.691 252.461 555.604 246.63 555.604 246.63C555.604 246.63 555.09 245.258 556.976 245.429Z" fill="#5D1707"/>
<path d="M561.606 246.63L568.123 246.287C568.123 246.287 569.838 246.115 570.524 247.316L572.753 251.775C572.753 251.775 572.925 252.461 571.896 252.461C570.867 252.461 565.379 252.461 565.379 252.461C565.379 252.461 564.35 252.461 563.493 251.946C562.807 251.432 560.577 247.487 560.577 247.487C560.577 247.487 560.406 246.458 561.606 246.63Z" fill="#E3301F"/>
<path d="M550.116 184.035C547.887 185.407 545.829 187.465 544.8 189.866C543.6 192.438 543.428 195.182 543.771 198.098C543.943 200.499 544.457 202.728 544.8 205.129C545.143 207.53 545.486 209.931 546.001 212.16C546.344 214.218 546.858 216.447 547.544 218.505C548.059 219.877 548.573 221.249 549.602 222.106C550.974 223.307 552.689 223.993 554.232 224.679C556.29 225.536 558.177 226.394 560.234 227.251C562.121 227.937 566.751 230.51 566.751 229.309L560.577 179.577L559.206 178.376C559.034 178.376 558.863 178.548 558.863 178.548C557.834 179.062 556.976 179.577 555.947 180.263C553.889 181.634 552.003 182.835 550.116 184.035Z" fill="#DC4E14"/>
<path d="M544.286 202.556C544.458 203.414 544.629 204.271 544.629 205.129C544.972 207.53 545.315 209.931 545.83 212.16C546.173 214.218 546.687 216.447 547.373 218.505C547.887 219.877 548.402 221.249 549.431 222.106C550.803 223.307 552.518 223.993 554.061 224.679C556.119 225.536 558.005 226.394 560.063 227.251C561.95 227.937 566.58 230.51 566.58 229.309L563.15 202.556H544.286Z" fill="#DC4E14"/>
<path d="M558.862 179.92C558.862 179.92 545.658 186.436 545.315 193.124C545.143 199.641 549.43 219.363 549.43 219.363C549.43 219.363 549.773 221.249 552.003 222.278L547.887 199.641C547.887 199.641 546.001 191.41 550.459 187.637C555.09 183.864 558.862 179.92 558.862 179.92Z" fill="#E3301F"/>
<path d="M166.662 207.701L182.953 207.015C182.953 207.015 182.782 208.73 181.067 210.274C179.352 211.817 171.463 211.474 171.463 211.474C171.463 211.474 167.862 211.646 166.833 210.445C165.461 209.416 165.29 207.873 166.662 207.701Z" fill="#E86408"/>
<path opacity="0.5" d="M167.004 208.387L177.808 207.873C177.808 207.873 177.637 209.073 176.608 210.102C175.407 211.131 170.263 210.788 170.263 210.788C170.263 210.788 167.862 210.96 167.176 210.102C166.318 209.588 166.147 208.559 167.004 208.387Z" fill="#E86408"/>
</g>
<g clip-path="url(#clip1)">
<path d="M310.197 298.855L311.803 303.235L323.002 299.016L322.159 293.792L310.197 298.855Z" fill="#EEA987"/>
<path d="M287.236 83.3728C287.236 83.3728 282.54 114.351 282.219 117.124C281.536 122.95 288.922 168.433 288.922 168.433L296.067 160.558C296.067 160.558 292.294 119.856 292.696 117.164C293.619 110.735 299.881 89.4399 299.881 89.4399C299.881 89.4399 292.053 80.721 287.236 83.3728Z" fill="#FCBDA9"/>
<path d="M311.241 301.789C311.241 301.789 307.869 310.869 304.256 312.436C300.644 314.003 289.685 318.584 289.886 320.713C290.086 322.843 288.722 329.593 309.715 322.963C330.709 316.334 331.713 313.642 329.826 310.025C327.939 306.409 324.728 300.824 322.56 297.449L311.241 301.789Z" fill="#EFEFEF"/>
<path d="M294.984 155.334L287.156 162.848L287.277 171.366L297.553 161.2L294.984 155.334Z" fill="#323657"/>
<path d="M323.082 306.932V312.075H334.964L336.048 306.289L323.082 306.932Z" fill="#EEA987"/>
<path d="M323.082 309.182C323.082 309.182 316.66 314.887 312.766 315.088C308.832 315.289 297.151 318.021 296.589 320.07C296.027 322.159 291.933 327.343 314.251 327.423C336.289 327.503 338.175 326.941 337.613 322.883C337.051 318.865 336.369 313.36 335.486 309.463L323.082 309.182Z" fill="#F5F5F5"/>
<path d="M295.626 149.468C295.626 149.468 272.826 198.768 270.859 210.059C268.892 221.349 308.832 302.512 308.832 302.512L323.042 293.431C323.042 293.431 296.589 223.037 295.827 219.34C295.104 215.644 324.247 163.973 324.247 163.973C324.247 163.973 318.426 150.955 295.626 149.468Z" fill="#53537C"/>
<path d="M312.244 165.218L316.579 234.327L321.075 306.972H337.091C337.091 306.972 340.142 244.935 340.865 236.577C341.587 228.22 347.528 175.022 346.565 165.941C345.601 156.821 312.244 165.218 312.244 165.218Z" fill="#53537C"/>
<path d="M309.194 54.3226C309.194 54.3226 292.294 60.1084 290.207 63.6041C288.12 67.0595 284.908 82.3277 284.908 82.3277C284.908 82.3277 292.977 85.2207 294.341 85.6225C295.706 86.0243 296.228 95.2254 297.794 105.592C299.359 115.958 292.053 157.263 291.411 158.789C291.411 158.789 305.34 172.129 351.984 166.906C351.984 166.906 350.137 140.347 350.298 132.231C350.418 125.601 353.589 102.578 353.589 102.578L359.932 61.7558C359.932 61.7558 352.746 54.4029 333.278 51.6305C320.915 49.8225 309.194 54.3226 309.194 54.3226Z" fill="white"/>
<path d="M350.78 88.4753C350.78 88.4753 354.994 109.128 354.312 110.253C353.67 111.418 318.868 118.088 318.065 118.851C317.262 119.655 318.386 126.927 318.386 126.927C318.386 126.927 367.478 124.516 368.682 120.498C369.887 116.48 368.682 87.9932 366.756 83.2922C364.869 78.6313 350.78 88.4753 350.78 88.4753Z" fill="#FCBDA9"/>
<path d="M318.305 4.49988C318.305 4.49988 331.11 4.98203 334.803 25.3129C339.058 48.8179 323.524 51.5903 315.215 44.3178C306.905 37.0453 299.68 24.0673 301.526 16.2725C303.333 8.47766 312.726 5.26329 318.305 4.49988Z" fill="#FCBDA9"/>
<path d="M331.311 14.6252C331.311 14.6252 335.085 2.33023 321.477 0.281071C307.869 -1.76809 302.289 9.56255 300.042 10.6072C297.794 11.6519 293.78 20.4512 301.125 28.6479C308.471 36.8445 308.471 36.8445 308.471 36.8445C308.471 36.8445 309.314 36.8847 311.08 30.5765C312.766 24.4692 311.763 27.9246 311.763 27.9246L316.018 26.1165C316.018 26.1165 315.014 23.6656 320.513 20.411C326.133 17.1163 331.311 14.6252 331.311 14.6252Z" fill="#1E3A5E"/>
<path d="M312.606 24.4691C311.963 22.6611 308.029 21.5762 307.026 25.7951C306.022 30.0139 311.843 33.5497 313.087 32.4649C314.332 31.38 313.689 27.4424 312.606 24.4691Z" fill="#FCBDA9"/>
<path d="M359.892 61.7156C359.892 61.7156 365.19 68.1845 368.963 85.2206L348.532 88.7966L342.069 72.9659L359.892 61.7156Z" fill="white"/>
<path d="M309.194 54.3226C309.194 54.3226 309.956 71.0775 318.828 71.8811C318.828 71.8811 330.629 72.4837 339.259 52.6752C339.259 52.6752 335.606 51.7511 333.76 50.827C333.318 50.6261 332.756 50.1037 332.275 49.3403C331.713 48.4162 331.231 47.1706 330.99 45.4831C330.709 43.675 330.79 41.3848 331.352 38.6124C332.957 31.139 313.328 41.7464 313.328 41.7464C313.328 41.7464 314.091 49.9028 313.168 52.9163L309.194 54.3226Z" fill="#FCBDA9"/>
<path d="M306.263 103.061L291.772 104.467L299.841 131.227L313.208 130.544L306.263 103.061Z" fill="#353D4A"/>
<path d="M312.043 118.168C312.043 118.168 309.314 111.98 309.354 110.694C309.394 109.409 306.705 108.685 306.986 111.779C307.267 114.873 307.467 116.802 307.467 116.802L312.043 118.168Z" fill="#EEA886"/>
<path d="M311.803 117.445C311.803 117.445 311.281 116.722 307.949 115.878C302.731 114.512 295.987 113.588 295.024 114.431C293.619 115.597 294.703 116.641 297.914 117.003C301.125 117.364 302.209 117.485 302.209 117.485C302.209 117.485 296.188 118.128 295.024 119.092C293.86 120.056 294.101 121.704 295.144 121.784C296.148 121.865 298.476 121.543 298.476 121.543C298.476 121.543 295.987 122.146 295.947 123.19C295.907 123.954 296.028 125.039 298.516 124.999C298.516 124.999 297.272 127.128 299.921 127.771C302.57 128.414 307.147 128.574 309.394 128.494C314.091 128.293 324.247 125.641 324.247 125.641L319.911 118.289C319.911 118.289 316.419 118.731 314.693 118.53C312.285 118.248 311.803 117.445 311.803 117.445Z" fill="#FCBDA9"/>
<path d="M316.7 45.4829C316.7 45.4829 320.433 53.117 332.274 49.3401C331.712 48.416 331.231 47.1704 330.99 45.4829C330.99 45.4829 325.41 50.8268 316.7 45.4829Z" fill="#B37E65"/>
</g>
<defs>
<clipPath id="clip0">
<rect width="532.139" height="229.284" fill="white" transform="translate(43.5303 88)"/>
</clipPath>
<clipPath id="clip1">
<rect width="131.384" height="327.463" fill="white" transform="matrix(-1 0 0 1 401.959 0)"/>
</clipPath>
</defs>
</svg>
