<svg width="447" height="327" viewBox="0 0 447 327" fill="none" xmlns="http://www.w3.org/2000/svg">
<ellipse cx="223.581" cy="302" rx="223.419" ry="25" fill="#E3E7EF"/>
<path d="M391.347 203.88H385.02V295.454H391.347V203.88Z" fill="#9199A0"/>
<path d="M327.745 203.88H321.418V295.454H327.745V203.88Z" fill="#9199A0"/>
<path d="M389.682 212.205H322.417C319.087 212.205 316.09 209.541 316.09 205.878V200.883C316.09 197.553 318.754 194.556 322.417 194.556H389.682C393.012 194.556 396.009 197.22 396.009 200.883V205.878C395.676 209.541 393.012 212.205 389.682 212.205Z" fill="#38B86F"/>
<path d="M404.667 82.3362C402.003 82.0032 399.339 84.0012 399.006 86.6652L386.019 197.553C385.686 200.217 387.684 202.881 390.348 203.214C393.012 203.547 395.676 201.549 396.009 198.885L408.996 87.9972C409.329 85.3332 407.331 82.6692 404.667 82.3362Z" fill="#38B86F"/>
<path d="M287.785 268.149C289.45 270.48 290.782 275.475 290.782 277.806C291.115 280.47 291.059 284.852 287.785 286.13C283 288 277.328 287.834 272 288.5C266.672 289.166 266.32 293.5 253 293.5C249.004 293.5 244.333 292.706 245 288.5C246.833 283.706 258.671 283.663 263 280C273.323 270.343 274.132 268.482 274.132 268.482C274.132 268.482 287.452 267.816 287.785 268.149Z" fill="#F4F5F5"/>
<path d="M335.071 162.589C335.071 162.589 284.788 178.905 282.79 181.236C280.792 183.567 269 273 269 273C269 273 270.137 275.475 279.128 276.14C288.118 276.806 290.5 276.14 290.5 276.14C290.5 276.14 305.434 219.198 304.768 211.539C304.435 203.88 307.099 192.558 307.099 192.558C307.099 192.558 365.374 189.561 369.37 186.231C392.346 166.584 367.039 155.263 367.039 155.263L334.405 157.594L335.071 162.589Z" fill="#3B3B59"/>
<path d="M333.739 72.3464C341.731 74.3444 342.397 81.6703 339.733 89.3292C337.069 96.9882 318.088 132.619 313.426 134.284C310.762 134.95 301.438 132.952 301.438 129.289C301.105 125.626 314.758 91.9932 318.088 86.3322C321.085 80.0053 324.415 70.0154 333.739 72.3464Z" fill="#FCBDA9"/>
<path d="M353.719 33.3857C353.719 33.3857 358.714 56.3625 360.046 57.3615C364.708 60.0254 380.691 60.6914 384.354 66.3524C389.016 73.3453 375.363 109.642 374.697 120.964C374.031 132.286 384.021 154.93 387.351 165.586C390.681 176.241 357.049 188.229 355.717 188.229C354.385 188.562 339.4 180.237 336.736 176.907C334.072 173.577 334.072 145.606 333.073 138.613C332.074 131.62 326.08 107.311 325.747 105.646C321.751 95.3231 323.083 86.3322 323.416 84.0012C323.416 81.6702 322.75 78.0073 323.749 76.3423C325.414 73.0123 337.735 67.0184 337.402 65.6864C337.402 64.3544 335.737 43.7086 335.737 43.7086L353.719 33.3857Z" fill="#FCBDA9"/>
<path d="M334.738 72.6793C328.078 70.3483 322.417 72.3463 317.422 84.3342C312.427 96.3221 302.104 114.97 302.104 114.97L321.418 126.625C321.418 126.625 339.733 98.3201 341.398 87.9972C342.064 81.0042 340.399 75.0103 334.738 72.6793Z" fill="#EDEDED"/>
<path d="M317.421 278.138C319.086 280.802 320.418 285.797 320.418 288.128C320.751 290.792 319.086 296.786 317.421 296.786C312 299 305.828 299.834 300.5 300.5C295.172 301.166 293.82 304 280.5 304C276.504 304 275.167 300.665 275.5 299C279 293 288.671 293.996 293 290C303.323 280.01 303.769 278.804 303.769 278.804C303.769 278.804 317.088 277.472 317.421 278.138Z" fill="white"/>
<path d="M360.378 57.3615L340.732 74.3444L337.246 65.3036C337.246 65.3036 325.081 72.6794 324.082 76.0093C322.75 79.3393 323.083 85.6663 322.75 87.9972C322.417 90.3282 324.082 101.317 326.413 110.308C327.745 115.636 328.744 122.962 331.408 131.953C333.406 139.945 333.406 159.925 333.406 159.925C333.406 159.925 343.396 161.257 355.05 158.926C368.703 155.929 386.019 154.597 386.352 153.931C388.683 151.267 377.694 125.293 377.694 122.962C377.694 120.631 388.017 77.3413 387.351 72.0134C386.685 66.6854 384.354 63.3555 380.025 62.0235C375.696 61.0245 360.378 57.3615 360.378 57.3615Z" fill="#F9FBFF"/>
<path d="M386.352 154.597C386.352 154.597 389.349 166.251 388.017 175.575C386.685 185.232 381.69 196.554 359.379 198.552C337.068 200.55 323.083 201.882 322.417 201.882C321.751 201.882 324.082 221.196 323.083 234.516C322.084 247.836 319 282.5 319 282.5C319 282.5 315.757 284.465 307.099 284.798C298.108 285.131 297.5 281.5 297.5 281.5C297.5 281.5 289.45 198.219 291.448 191.226C295.111 179.571 333.072 169.914 333.072 167.583C332.739 165.585 333.405 158.593 333.405 158.593L386.352 154.597Z" fill="#53537C"/>
<path d="M380.358 64.6874C387.684 61.3574 390.681 70.0154 393.678 77.6743C396.675 85.3332 403.002 124.294 401.67 126.292C400.338 128.623 388.017 127.957 385.353 125.293C382.689 122.629 375.696 87.9972 374.697 81.3373C373.365 74.6773 371.7 68.6834 380.358 64.6874Z" fill="#FCBDA9"/>
<path d="M386.352 154.597C387.018 153.598 353.052 154.264 351.72 149.269C349.389 141.943 383.022 144.607 378.027 124.627C376.362 119.299 366.039 120.298 361.71 118.633C357.381 116.968 346.725 117.967 336.735 115.969C327.412 113.971 324.082 101.317 324.082 100.651C324.748 103.981 325.414 107.311 326.413 110.641C327.745 115.969 328.744 123.295 331.407 132.286C333.072 138.946 333.405 153.598 333.405 158.593L367.371 156.928C377.028 155.596 386.019 154.93 386.352 154.597Z" fill="#EDEDED"/>
<path d="M401.67 124.96C404.001 133.618 386.352 136.948 378.027 138.28C369.369 139.612 341.397 140.611 341.397 140.611L339.399 134.284C339.399 134.284 386.019 119.299 388.35 118.966C391.014 118.3 399.339 115.969 401.67 124.96Z" fill="#FCBDA9"/>
<path opacity="0.4" d="M352.386 38.0477L336.735 54.3646L337.068 57.3615L353.718 57.6945L358.713 53.3656L354.384 37.0487L352.386 38.0477Z" fill="#B37E65"/>
<path d="M326.079 14.0719C330.741 8.07795 345.393 1.08501 354.717 10.4089C364.041 19.7328 362.043 30.7217 359.046 37.7147C356.715 43.3756 354.051 46.7056 348.057 50.3686C346.725 51.0346 335.736 55.0305 333.405 54.6975C331.74 54.6975 328.743 43.0426 328.41 43.0426C328.077 43.0426 326.745 42.7096 326.412 41.7106C326.079 40.3787 326.412 31.7207 325.746 30.7217C325.08 30.0558 320.751 20.7318 326.079 14.0719Z" fill="#FCBDA9"/>
<path d="M323.749 19.7328C323.749 19.7328 331.741 13.4059 344.062 21.7308C346.726 23.3958 344.988 28.7627 345.654 29.4287C346.653 30.4277 352.054 26.3927 352.054 27.3917C350.389 38.7136 355.051 44.0416 355.717 44.0416C358.714 43.7086 368.798 25.0548 362.471 13.7329C360.114 9.26847 354.843 6.89961 350.699 4.76381C343.716 1.16456 340.049 -1.40212 332.762 0.84002C329.765 2.17201 315.424 6.07993 323.749 19.7328Z" fill="#1E3A5E"/>
<path d="M347.059 30.7217C346.726 34.3847 346.726 39.0467 348.724 39.3797C350.722 39.7127 352.72 37.0487 353.053 33.3857C353.386 29.7227 352.387 26.7258 350.389 26.3928C348.724 25.7268 347.725 27.0588 347.059 30.7217Z" fill="#FCBDA9"/>
<path d="M342.063 134.617C342.063 134.617 332.073 131.287 331.74 130.954C331.407 130.621 313.759 137.281 314.425 137.947C315.091 138.613 317.422 138.946 320.086 138.28C322.75 137.614 333.738 142.942 338.733 141.943C343.395 140.944 342.063 134.617 342.063 134.617Z" fill="#FCBDA9"/>
<path d="M314.758 131.953C314.092 140.944 296.11 137.947 287.119 136.282C278.461 134.617 253.486 126.292 253.486 126.292L254.485 118.633C254.485 118.633 301.438 121.297 303.769 121.63C306.433 121.963 315.424 122.962 314.758 131.953Z" fill="#FCBDA9"/>
<path d="M255.151 118.966L244.162 115.636C244.162 115.636 238.834 119.632 238.168 120.631C237.502 121.963 236.503 127.957 236.503 128.623C236.17 129.622 236.836 130.621 237.169 130.621C237.502 130.621 238.834 127.624 242.83 127.291C246.826 126.958 249.823 127.291 252.154 126.625C257.149 125.293 255.151 118.966 255.151 118.966Z" fill="#FCBDA9"/>
<path d="M248.158 110.308L249.157 108.643C249.49 108.31 249.823 107.977 250.156 108.31C250.489 108.643 250.822 108.976 250.489 109.309L249.49 110.974C249.157 111.307 248.824 111.64 248.491 111.307C248.158 111.307 247.825 110.641 248.158 110.308Z" fill="#90A4A2"/>
<path d="M235.505 138.28C234.839 137.947 235.838 134.284 236.171 133.618L247.492 110.641C247.825 109.975 248.824 109.642 249.49 109.975C250.156 110.308 250.489 111.307 250.156 111.973L238.835 134.617C238.502 135.616 236.171 138.613 235.505 138.28Z" fill="#4B5B60"/>
<path d="M249.631 113.078L246.601 111.697L245.91 113.212L248.94 114.593L249.631 113.078Z" fill="#90A4A2"/>
<path d="M244.496 120.298C244.163 120.298 244.163 119.965 244.163 119.632L247.826 111.973C247.826 111.64 248.159 111.64 248.492 111.64C248.825 111.64 248.825 111.973 248.825 112.306L245.162 119.965C245.162 120.298 244.829 120.298 244.496 120.298Z" fill="#C9DAD8"/>
<path d="M249.49 120.298C249.49 120.298 243.829 120.964 243.496 121.963C243.163 122.962 240.167 128.29 239.834 128.956C239.501 129.622 239.168 130.288 241.166 129.955C243.496 129.289 244.495 126.625 245.161 126.958C245.827 126.958 248.158 128.956 251.155 127.957C254.152 126.958 255.484 124.96 255.484 123.961C255.484 122.962 251.488 118.966 249.49 120.298Z" fill="#FCBDA9"/>
<path d="M376.695 62.0235C370.368 64.6875 367.704 70.3484 372.033 82.6693C376.362 94.9902 381.357 115.636 381.357 115.636L403.002 110.974C403.002 110.974 397.341 77.6743 391.68 69.3494C387.684 62.6895 382.356 59.6925 376.695 62.0235Z" fill="#F9FBFF"/>
<path d="M165.575 271.811C163.91 274.142 162.578 279.137 162.578 281.468C162.245 283.799 163.91 289.46 165.575 289.46C170.57 289.46 176.564 289.793 181.892 290.459C187.22 291.125 189.218 294.122 202.537 294.122C206.533 294.122 213.526 293.789 213.193 292.124C212.86 290.459 200.539 287.462 196.21 283.799C185.888 274.142 179.228 271.811 179.228 271.811C179.228 271.811 165.908 271.145 165.575 271.811Z" fill="#191919"/>
<path d="M178.229 289.46H164.909V292.124H178.229V289.46Z" fill="#191919"/>
<path d="M118.289 166.251C118.289 166.251 168.572 182.568 170.57 184.899C172.568 187.23 186.887 275.807 186.887 275.807C186.887 275.807 183.224 279.137 174.233 279.803C165.242 280.469 161.912 279.803 161.912 279.803C161.912 279.803 147.926 222.861 148.592 215.202C148.925 207.543 146.261 196.221 146.261 196.221C146.261 196.221 87.9866 193.224 83.9906 189.894C61.0138 170.247 86.3216 158.925 86.3216 158.925L118.955 161.256L118.289 166.251Z" fill="#191919"/>
<path d="M192.881 104.647C192.881 104.647 196.877 101.65 199.541 100.318C202.205 98.986 210.529 96.6551 211.195 94.3241C211.861 92.3261 204.536 88.3301 199.541 90.6611C194.546 92.9921 185.222 100.318 185.222 100.318L192.881 104.647Z" fill="#FCBDA9"/>
<path d="M120.953 75.0102C113.294 77.3412 112.961 84.6671 115.958 92.326C118.955 99.985 139.268 134.617 144.263 135.949C146.927 136.615 156.251 134.284 156.251 130.288C156.251 126.625 141.266 93.658 137.603 87.9971C134.273 82.0031 130.277 72.0132 120.953 75.0102Z" fill="#B5CCF9"/>
<path d="M99.6412 36.7156C99.6412 36.7156 94.3133 59.3594 93.3143 60.6914C89.9843 65.3534 78.9954 67.3514 75.3324 72.6793C70.6705 79.6722 77.9964 112.639 78.6624 123.961C78.9954 135.616 72.3355 158.593 69.0055 169.248C65.6755 179.904 95.9783 191.559 96.9772 191.892C98.3092 192.225 113.294 183.9 115.958 180.57C118.622 177.24 118.622 149.269 119.621 142.276C120.62 135.283 126.614 110.974 126.947 109.309C130.943 98.9861 129.611 89.9952 129.278 87.6642C129.278 85.3332 129.944 81.6702 128.945 80.0052C127.28 76.6753 114.959 70.6813 115.292 69.3493C115.625 68.0174 116.957 47.3715 116.957 47.3715L99.6412 36.7156Z" fill="#FCBDA9"/>
<path d="M148.592 299.783H135.272V302.447H148.592V299.783Z" fill="#191919"/>
<path d="M135.938 281.468C134.273 284.132 132.941 289.127 132.941 291.458C132.608 294.122 134.273 300.116 135.938 300.116C140.933 300.116 146.927 300.449 152.255 301.115C157.583 301.781 159.581 305.111 172.901 305.111C176.897 305.111 183.89 304.778 183.557 303.113C183.224 301.448 170.903 298.451 166.574 294.455C156.251 284.465 149.591 282.134 149.591 282.134C149.591 282.134 136.271 281.135 135.938 281.468Z" fill="#191919"/>
<path d="M93.3147 61.0244L112.962 78.0073L115.959 69.0163C115.959 69.0163 128.279 73.0123 129.611 76.3423C130.943 79.6722 130.943 89.3292 131.276 91.6601C131.609 93.9911 129.944 104.98 127.613 113.971C125.615 119.632 124.616 126.625 122.285 135.949C120.287 143.941 118.622 161.59 118.622 161.59C118.622 161.59 110.298 165.252 98.6427 162.589C84.9898 159.592 71.0039 158.926 70.3379 158.26C68.0069 155.596 75.6659 137.614 75.9989 126.625C75.9989 124.294 72.3359 82.0032 73.0019 76.6753C73.6679 71.3473 76.9979 68.3504 81.3268 67.0184C85.3228 65.6864 93.3147 61.0244 93.3147 61.0244Z" fill="#CEE0FF"/>
<path d="M101.639 96.6552C95.3124 74.0114 82.9915 67.3514 82.9915 67.3514L81.3265 66.6854C80.9935 66.6854 80.9935 66.6854 80.6605 67.0184C76.3315 68.3504 73.0016 71.3474 72.3356 76.6753C71.6696 82.0033 75.3325 124.294 75.3325 126.625C74.9995 137.947 67.6736 155.929 69.6716 158.26C70.0046 158.926 81.6595 159.592 93.6474 161.59L115.625 161.923C117.29 161.59 117.956 161.257 117.956 161.257C117.956 161.257 119.621 143.275 121.619 135.616C122.951 130.621 123.95 125.959 124.616 122.296C125.282 122.296 107.966 119.299 101.639 96.6552Z" fill="#B5CCF9"/>
<path d="M70.3377 158.593C70.3377 158.593 66.6747 170.247 68.0067 179.571C69.3387 189.228 71.6697 199.884 93.9805 201.882C116.291 203.88 130.277 205.212 130.943 205.212C131.609 205.212 129.278 224.526 130.277 237.846C131.276 251.166 132.608 286.463 132.608 286.463C132.608 286.463 137.603 287.795 146.261 288.128C155.252 288.461 157.916 285.131 157.916 285.131C157.916 285.131 163.91 201.549 161.912 194.556C158.249 182.901 120.953 173.244 119.621 171.246C118.289 169.581 118.622 161.589 118.622 161.589L70.3377 158.593Z" fill="#303030"/>
<path d="M82.3255 68.3503C74.3335 69.3493 72.6686 76.6752 74.3335 85.0001C75.9985 93.3251 92.6484 133.951 94.6464 135.283C96.9773 136.615 109.964 133.951 110.63 129.955C111.296 126.292 98.6423 91.6601 96.3113 85.0001C93.9804 78.3402 91.9824 67.3513 82.3255 68.3503Z" fill="#CEE0FF"/>
<path d="M100.974 41.7105L116.625 58.0274L116.292 61.0244H99.6417L94.9797 56.6954L98.9757 40.7115L100.974 41.7105Z" fill="#DFA48E"/>
<path d="M127.28 17.7347C122.618 11.7407 107.966 4.74779 98.6425 14.0717C89.3186 23.3956 91.3166 34.3845 94.3135 41.3775C96.6445 47.0384 99.3085 50.3684 105.302 54.0314C106.634 54.6973 117.623 58.6933 119.954 58.3603C121.619 58.0273 124.616 46.3724 124.949 46.7054C125.282 46.7054 126.614 46.3724 126.947 45.3734C127.28 44.0414 126.947 35.3835 127.613 34.3845C128.279 33.7185 132.608 24.3946 127.28 17.7347Z" fill="#FCBDA9"/>
<path d="M129.611 23.3957C129.611 23.3957 121.619 17.0687 109.298 25.3937C106.634 27.0586 109.631 37.3815 108.965 38.0475C108.299 38.7135 101.306 29.7226 101.639 31.0546C103.304 42.3765 98.6423 47.7045 97.9763 47.7045C94.9794 47.3715 85.4001 28.1901 91.7271 16.5352C98.054 4.88031 122.923 6.56752 125.92 7.56651C128.584 8.56551 128.945 12.7398 129.611 23.3957Z" fill="#343434"/>
<path d="M106.301 34.0516C106.634 37.7145 106.634 42.3765 104.636 42.7095C102.638 43.0425 100.64 40.3785 100.307 36.7155C99.9745 33.0526 100.973 29.7226 102.971 29.7226C104.636 29.3896 105.635 30.3886 106.301 34.0516Z" fill="#FCBDA9"/>
<path d="M112.629 73.0123L112.962 78.0072L108.3 74.0113L112.629 73.0123Z" fill="#B8D1FF"/>
<path d="M142.931 135.283C147.26 142.942 162.578 132.619 169.571 127.291C176.897 121.963 196.211 103.981 196.211 103.981L190.883 95.9891C190.883 95.9891 150.59 119.965 148.259 121.63C146.261 122.629 138.269 127.291 142.931 135.283Z" fill="#B5CCF9"/>
<path d="M112.961 78.0072L114.293 73.0123L115.625 75.3432L112.961 78.0072Z" fill="#B8D1FF"/>
<path d="M70.3376 158.593L68.6726 163.587L118.622 167.25V161.589L70.3376 158.593Z" fill="black"/>
<path d="M115.958 167.25H114.293C112.628 167.25 111.296 165.918 111.296 164.253C111.296 162.588 112.628 161.256 114.293 161.256H115.958C117.623 161.256 118.955 162.588 118.955 164.253C118.955 165.918 117.623 167.25 115.958 167.25Z" fill="#606060"/>
<path d="M109.964 76.0093L115.958 75.3433L115.625 81.3372L112.295 81.6702L109.964 76.0093Z" fill="#303030"/>
<path d="M112.295 81.6702C112.295 81.6702 115.292 97.321 115.292 109.309C115.292 121.297 109.964 156.594 109.964 156.594L114.959 164.919L118.622 156.261C118.622 156.261 120.953 121.63 119.954 108.643C118.955 95.656 115.625 81.3372 115.625 81.3372L112.295 81.6702Z" fill="#303030"/>
<path d="M90.9834 61.3574L94.9794 56.6954L112.628 73.0123L109.631 78.3402L90.9834 61.3574Z" fill="#E0F2FF"/>
<path d="M114.293 73.0122L115.958 66.3523L118.622 69.6823L116.291 77.6742L114.293 73.0122Z" fill="#E0F2FF"/>
<path d="M199.54 100.651C199.54 100.651 202.537 100.651 206.533 99.9851C206.866 99.9851 207.532 99.9851 208.198 99.9851C208.531 99.9851 209.197 99.6521 209.53 99.3191C209.863 99.3191 210.196 99.3191 210.529 99.3191C210.862 99.3191 211.195 98.6531 211.861 98.6531C212.194 98.6531 212.86 98.6531 213.193 98.6531C214.525 98.3201 214.192 97.6541 214.525 97.6541C215.524 97.3211 215.857 97.3211 216.19 96.9881C217.189 96.3221 219.187 92.3262 219.187 91.3272C219.187 90.6612 220.852 86.3322 220.519 86.3322C220.186 85.9992 218.521 86.3322 217.522 88.3302C216.523 90.3282 214.858 92.9922 215.191 92.3262C215.191 91.6602 215.191 88.9962 214.858 87.6642C214.525 86.9982 213.859 86.9982 213.193 87.3312C212.86 87.6642 212.194 89.6622 212.194 89.6622L210.862 88.6632C209.863 88.9962 209.863 90.6612 209.53 91.3272C209.53 91.6602 208.531 89.9952 208.198 90.3282C206.533 91.3272 207.532 95.6561 205.534 95.9891C202.87 95.9891 199.54 97.6541 199.54 100.651Z" fill="#FCBDA9"/>
<path d="M94.9795 131.62C93.9805 140.611 112.628 140.944 121.619 140.611C130.61 140.278 156.917 136.948 156.917 136.948L157.25 127.291C157.25 127.291 110.297 123.628 107.633 123.628C104.969 123.295 95.9785 122.629 94.9795 131.62Z" fill="#CEE0FF"/>
<path d="M176.897 135.616C176.897 134.95 176.231 133.951 175.565 133.951H169.238C168.572 133.951 167.573 134.617 167.573 135.283C167.573 135.949 168.239 136.948 168.905 136.948H175.232C176.231 137.281 176.897 136.615 176.897 135.616Z" fill="#FCBDA9"/>
<path d="M177.229 132.952C177.229 132.286 176.563 131.287 175.897 131.287H169.571C168.905 131.287 167.906 131.953 167.906 132.619C167.906 133.285 168.572 134.284 169.237 134.284H175.564C176.563 134.617 177.229 133.951 177.229 132.952Z" fill="#FCBDA9"/>
<path d="M177.562 130.288C177.562 129.622 176.896 128.623 176.23 128.623H169.904C169.238 128.623 168.239 129.289 168.239 129.955C168.239 130.621 168.905 131.62 169.571 131.62H175.897C176.563 131.62 177.562 130.954 177.562 130.288Z" fill="#FCBDA9"/>
<path d="M177.229 127.624C177.229 126.958 176.563 125.959 175.897 125.959H169.571C168.905 125.959 167.906 126.625 167.906 127.291C167.906 127.957 168.572 128.956 169.237 128.956H175.564C176.563 128.956 177.229 128.29 177.229 127.624Z" fill="#FCBDA9"/>
<path d="M154.586 128.956C154.586 128.956 164.243 124.96 166.574 124.627C168.572 124.294 176.563 125.959 176.563 125.959C176.563 125.959 173.9 128.623 174.233 130.288C174.566 131.953 175.565 136.948 175.565 136.948C175.565 136.948 168.572 138.613 165.575 138.28C162.245 137.947 159.248 136.948 159.248 136.948L154.586 128.956Z" fill="#FCBDA9"/>
<path d="M158.915 125.959H150.257V137.947H158.915V125.959Z" fill="#CEE0FF"/>
<path d="M191.295 94.707L184.048 99.4429L190.605 109.478L197.853 104.742L191.295 94.707Z" fill="#CEE0FF"/>
<path d="M84.0255 289.72H96.0134L96.0134 204.14H84.0255L84.0255 289.72Z" fill="#9199A0"/>
<path d="M54.5949 204.983H61.2549V181.007H54.5949V204.983Z" fill="#9199A0"/>
<path d="M61.0137 212.538H127.946C131.276 212.538 134.273 209.874 134.273 206.211V201.216C134.273 197.886 131.609 194.889 127.946 194.889H61.0137C57.6837 194.889 54.6868 197.553 54.6868 201.216V206.211C54.6868 209.541 57.3507 212.538 61.0137 212.538Z" fill="#2156DF"/>
<path d="M43.6981 83.3352L45.6961 83.0022C48.6931 82.6692 51.3571 84.6672 51.6901 87.6642L63.012 182.568C63.345 185.565 61.347 188.229 58.35 188.562L56.352 188.895C53.3551 189.228 50.6911 187.23 50.3581 184.233L39.0362 89.3292C38.7032 86.3322 40.7012 83.6682 43.6981 83.3352Z" fill="#2156DF"/>
<path d="M120.953 306.776C124.815 306.776 127.946 303.645 127.946 299.783C127.946 295.921 124.815 292.79 120.953 292.79C117.091 292.79 113.96 295.921 113.96 299.783C113.96 303.645 117.091 306.776 120.953 306.776Z" fill="#303030"/>
<path d="M57.3511 306.776C61.2132 306.776 64.344 303.645 64.344 299.783C64.344 295.921 61.2132 292.79 57.3511 292.79C53.489 292.79 50.3582 295.921 50.3582 299.783C50.3582 303.645 53.489 306.776 57.3511 306.776Z" fill="#303030"/>
<path d="M48.0269 295.787H131.609C131.609 292.457 128.945 289.793 125.615 289.793H54.0208C50.6908 289.793 48.0269 292.457 48.0269 295.787Z" fill="#9199A0"/>
<path d="M323.416 137.947H130.61V144.607H323.416V137.947Z" fill="#9199A0"/>
<path d="M152 145H146V322H152V145Z" fill="#EFF1F5"/>
<path d="M308 145H302V322H308V145Z" fill="#EFF1F5"/>
</svg>
