<svg width="325" height="340" viewBox="0 0 325 340" fill="none" xmlns="http://www.w3.org/2000/svg">
<path d="M324.021 325.79C324.043 321.777 262.7 318.183 187.008 317.762C111.316 317.341 49.9374 320.253 49.9152 324.266C49.893 328.279 111.236 331.873 186.928 332.294C262.62 332.715 323.998 329.803 324.021 325.79Z" fill="#E3E7EF"/>
<path d="M209.586 184.413L251.209 331.365L215.337 184.413H209.586Z" fill="#EFF1F5"/>
<path d="M168.699 184.413L127.05 331.365L162.921 184.413H168.699Z" fill="#EFF1F5"/>
<path d="M270.799 0H103.153V182.702H270.799V0Z" fill="#EFF1F5"/>
<path d="M186.949 58.6016H153.178L182.905 74.7394C185.4 69.8955 186.844 64.4197 186.949 58.6016Z" fill="#2156DF"/>
<path d="M114.129 58.6016C114.366 71.9489 121.745 83.5587 132.617 89.7189L149.423 58.6016H114.129Z" fill="#2156DF"/>
<path d="M151.209 59.0492V94.4576C164.549 94.2207 176.13 86.7967 182.275 75.8978L151.209 59.0492Z" fill="#2156DF"/>
<path d="M114.129 57.2853H147.979L118.2 41.1212C115.705 45.9651 114.234 51.4673 114.129 57.2853Z" fill="#2156DF"/>
<path d="M168.462 26.168L151.629 57.3116H186.949C186.713 43.938 179.334 32.3283 168.462 26.168Z" fill="#2156DF"/>
<path d="M149.896 56.8378V21.4557C136.582 21.6926 125.001 29.0902 118.856 39.9628L149.896 56.8378Z" fill="#2156DF"/>
<path d="M151.629 20.4026V54.2842L167.753 24.4832C162.921 21.9559 157.432 20.5079 151.629 20.4026Z" fill="#38B86F"/>
<path d="M149.896 60.5234L133.772 90.3508C138.604 92.8781 144.092 94.3523 149.896 94.4313V60.5234Z" fill="#2156DF"/>
<path d="M126.918 147.162H118.935V177.411H126.918V147.162Z" fill="#2156DF"/>
<path d="M141.361 141.686H133.378V177.411H141.361V141.686Z" fill="#2156DF"/>
<path d="M155.804 136.211H147.821V177.411H155.804V136.211Z" fill="#2156DF"/>
<path d="M170.248 130.735H162.265V177.384H170.248V130.735Z" fill="#2156DF"/>
<path d="M184.691 125.285H176.708V177.411H184.691V125.285Z" fill="#2156DF"/>
<path d="M199.134 119.81H191.151V177.411H199.134V119.81Z" fill="#2156DF"/>
<path d="M213.577 114.334H205.594V177.411H213.577V114.334Z" fill="#2156DF"/>
<path d="M228.02 108.858H220.037V177.384H228.02V108.858Z" fill="#2156DF"/>
<path d="M242.464 103.408H234.48V177.411H242.464V103.408Z" fill="#2156DF"/>
<path d="M256.907 97.9326H248.924V177.411H256.907V97.9326Z" fill="#2156DF"/>
<path d="M258.955 66.8943C258.246 67.0259 239.155 70.422 238.446 70.422L244.985 72.1858C242.437 73.1599 228.782 78.3461 225.421 79.6361C224.397 84.1115 223.661 87.2969 223.11 89.7979C220.011 89.5083 214.207 88.9555 209.192 88.5079C207.301 90.2191 192.674 103.408 190.783 105.12C186.188 104.54 180.489 103.803 176.366 103.277C172.427 106.647 153.441 122.863 149.66 126.075C145.878 124.785 140.495 122.969 137.212 121.863C135.82 122.837 111.608 139.686 110.164 140.686L111.503 142.634L137.58 124.496C141.44 125.812 146.508 127.523 150.185 128.76C153.362 126.049 174.239 108.226 177.102 105.751C181.671 106.331 187.396 107.068 191.571 107.594C192.622 106.647 209.349 91.5618 210.032 90.9563C212.606 91.1932 221.166 92.0093 225 92.3515C225.631 89.5347 227.206 82.7426 227.521 81.3473L246.088 72.8177L244.643 79.2149L258.955 66.8943Z" fill="#38B86F"/>
<path d="M278.966 182.702H99.3188V186.151H278.966V182.702Z" fill="#9199A0"/>
<path d="M263.971 12.6628H199.108V17.4015H263.971V12.6628Z" fill="#9199A0"/>
<path d="M263.971 30.5645H199.108V35.3032H263.971V30.5645Z" fill="#9199A0"/>
<path d="M264.496 39.4363H199.633V44.175H264.496V39.4363Z" fill="#9199A0"/>
<path d="M231.539 22.6667H199.108V26.1417H231.539V22.6667Z" fill="#9199A0"/>
<path d="M263.971 22.6667H238.446V26.1417H263.971V22.6667Z" fill="#9199A0"/>
<path d="M18.5158 110.306C12.082 125.943 5.5957 179.912 4.72911 181.965C3.49488 184.914 -0.102789 192.259 0.00225254 192.68C0.212335 193.575 3.4161 187.283 3.4161 187.283C4.38773 188.178 2.62829 193.101 2.4182 194.681C2.23438 196.26 1.13145 198.05 2.49698 197.892C3.86252 197.734 4.83415 187.731 5.38562 187.678C5.93709 187.599 5.38562 196.392 5.04424 198.393C4.72911 200.393 6.04213 202.157 6.40977 198.524C6.77742 194.891 7.32889 186.072 7.48645 187.783C7.64401 189.494 8.09044 197.971 8.98329 198.787C9.87614 199.604 9.79736 195.26 9.35093 190.442C9.14085 188.152 9.19337 186.783 9.29841 185.993C9.40345 185.203 10.0862 184.65 10.769 184.835C11.0316 184.914 11.2417 185.072 11.2679 185.44C11.373 186.467 11.8194 189.468 13.1324 189.31C14.4454 189.152 13.1062 186.177 12.8698 183.755C12.6335 181.333 9.69232 176.832 9.69232 176.832C9.69232 176.832 20.3015 130.998 23.2689 123.811C26.0525 117.124 32.3287 108.2 33.1428 107.041L34.4558 75.5819C29.2825 80.4258 25.1596 94.1417 18.5158 110.306Z" fill="#FCBDA9"/>
<path d="M5.88477 169.671V175.226L10.3753 175.831L11.0581 172.014L5.88477 169.671Z" fill="#C2CEF9"/>
<path d="M101.314 73.7127C101.314 73.7127 107.171 70.7379 107.88 71.4487C108.589 72.1595 102.47 74.2919 102.47 74.2919L101.314 73.7127Z" fill="#FCBDA9"/>
<path d="M97.9009 85.928L98.7675 81.3999C98.7675 81.3999 98.3473 77.0561 98.3473 76.24C98.3473 75.4239 102.785 72.2385 103.836 73.2915C104.098 73.5548 105.359 76.1874 105.49 76.4506C106.147 77.7406 103.074 81.084 102.418 82.374L100.474 86.2965L97.9009 85.928Z" fill="#FCBDA9"/>
<path d="M101.131 77.6616L125.29 35.9349C125.343 35.8296 125.474 35.8033 125.553 35.856C125.632 35.9086 125.658 36.0402 125.605 36.1455L103.127 79.0306C102.785 79.6887 102.05 79.9257 101.472 79.5571C100.895 79.1885 100.737 78.3461 101.078 77.688C101.105 77.688 101.131 77.6616 101.131 77.6616Z" fill="#ED1C24"/>
<path d="M99.6865 86.6125C97.3494 85.5331 94.5658 86.5335 93.4891 88.9028C89.7076 97.2218 84.403 107.989 80.8841 107.989C75.9472 107.989 62.0817 78.8726 56.1206 76.2137C53.5471 98.8804 63.6048 104.356 63.8674 105.093C64.7078 107.384 70.9052 121.573 79.3348 121.573C87.7381 121.573 98.2685 102.092 102.549 93.1676C103.678 90.8246 102.654 87.9814 100.317 86.902L99.6865 86.6125Z" fill="#A3A8BF"/>
<path d="M98.2423 83.1901L95.7476 87.9288L101.761 90.2718V84.6907L98.2423 83.1901Z" fill="#A3A8BF"/>
<path d="M66.126 236.091C64.813 228.931 65.6795 145.741 64.3928 140.054L45.4854 185.73L54.0987 235.196C54.0987 235.196 50.0284 312.489 50.0021 316.859H60.3224C60.7951 294.298 67.1501 241.883 66.126 236.091Z" fill="#3B3B59"/>
<path d="M29.9654 322.098L24.9497 333.182L26.3152 337.104L32.2501 333.182L35.165 322.941C35.165 322.941 35.4013 321.282 35.8215 318.413H29.7553C29.8604 320.756 29.9654 322.098 29.9654 322.098Z" fill="#FCBDA9"/>
<path d="M57.1187 181.254L64.3666 140.054C64.2878 139.738 40.9949 139.396 40.9949 139.396C40.9949 139.396 29.5716 168.934 29.5716 182.86C29.5716 196.787 32.2239 250.149 32.2239 250.149C32.2239 250.149 28.6263 261.628 28.6263 281.451C28.6263 296.246 26.9981 311.568 27.392 318.413H35.8216C38.2376 301.353 57.1187 181.254 57.1187 181.254Z" fill="#53537C"/>
<path d="M61.0049 327.127C60.3746 326.126 60.2171 322.335 60.3221 316.859H54.4923C54.466 319.729 54.2822 320.887 54.2822 320.887L61.7927 333.208L65.758 332.365C65.758 332.365 62.7118 329.917 61.0049 327.127Z" fill="#FCBDA9"/>
<path d="M53.5207 319.834C53.5207 319.834 52.6016 320.019 52.549 322.414C52.5228 324.81 55.0175 335.13 55.0175 335.13H55.9104C55.9104 335.13 54.8337 325.547 56.6719 326.6C58.5101 327.653 60.007 334.656 60.007 334.656C60.007 334.656 62.633 335.077 67.176 335.182C71.7453 335.288 64.9439 331.76 64.9439 331.76L60.4534 330.681C60.4534 330.681 58.1162 323.783 56.4618 321.572C54.8337 319.36 53.5207 319.834 53.5207 319.834Z" fill="black"/>
<path d="M59.2193 78.6094C57.1447 75.6872 59.1668 72.4228 51.2362 72.4754C42.7278 72.5281 34.6396 75.187 34.5083 75.2923L33.1953 102.355C33.2478 102.276 33.3004 102.25 33.3004 102.25L39.8392 114.255C42.3602 119.888 41.4148 126.918 38.7362 132.499L36.0839 138.001C36.2152 139.633 37.7383 140.923 39.6291 141.002L62.7382 142.029C64.9441 142.134 66.7823 140.554 66.651 138.633C66.2308 132.235 65.4693 120.889 66.8085 111.833C67.465 107.463 68.7255 96.9586 69.2508 94.8788C69.2245 94.8788 62.6857 83.506 59.2193 78.6094Z" fill="#C2CEF9"/>
<path d="M34.6133 107.041C38.3422 97.6957 38.5786 87.3232 35.2698 77.8196L34.5082 75.5819C27.5492 80.3995 23.5051 94.1153 16.8613 110.306C12.2395 121.573 4.96536 150.084 1.84038 167.144C1.57777 168.539 2.2868 169.934 3.57356 170.566C5.41178 171.461 7.90651 172.619 10.0336 173.62C11.9243 174.515 14.104 173.357 14.4716 171.303C16.5724 159.009 20.9842 129.471 23.3476 123.811C26.1049 117.098 33.7992 108.2 34.6133 107.041Z" fill="#D2DEFF"/>
<path d="M27.3655 327.811C27.3655 327.811 22.5073 333.813 22.5073 335.867C22.5073 337.92 23.1638 339.526 24.8708 339.947C26.5777 340.342 30.6743 338.526 32.1974 333.182C32.1974 333.182 28.2321 335.84 26.6827 334.287C25.1596 332.734 27.3655 327.811 27.3655 327.811Z" fill="#1E3340"/>
<path d="M47.7173 60.6287C47.7173 60.6287 51.0786 69.1583 51.9977 74.2393C52.9168 79.3202 60.9787 78.0302 60.9787 81.0577C60.9787 84.0852 56.4882 81.6105 57.5124 86.6914C58.5365 91.7723 65.338 88.8238 66.1258 91.7987C66.9398 94.7735 58.8779 96.8796 64.9966 99.1699C71.1152 101.46 72.9272 98.1432 72.9272 98.1432C72.9272 98.1432 67.5176 99.1963 67.5176 97.0902C67.5176 94.9841 72.0869 98.2485 74.6341 94.6155C77.1814 90.9826 75.6057 87.3496 72.9272 86.6125C70.2486 85.849 70.0648 86.8231 71.6404 82.4793C73.216 78.1355 76.5511 79.0306 70.7738 75.5029C64.9966 71.9752 62.318 72.607 64.6289 69.3163C66.9136 65.9992 51.2362 57.101 47.7173 60.6287Z" fill="#111F59"/>
<path d="M41.021 57.259C41.021 57.259 42.5966 73.0283 44.7762 76.1874C46.1418 78.1618 53.3896 85.6121 55.9631 85.0329C57.5125 84.6907 50.3434 58.549 50.3434 58.549L41.021 57.259Z" fill="#FCBDA9"/>
<path d="M51.8403 64.1564C50.9999 60.892 50.3434 58.5753 50.3434 58.5753L49.3193 58.4437L41.021 57.2853C41.021 57.2853 46.1418 62.4715 47.7174 63.156C49.0829 63.7352 50.6585 64.1037 51.8403 64.1564Z" fill="#B37E65"/>
<path d="M50.3962 33.3024C50.3962 33.3024 54.1777 32.9075 55.3594 38.0147C56.5411 43.1219 56.1997 46.4127 56.935 47.1235C57.6441 47.8343 59.2197 48.4924 59.2197 48.4924C59.2197 48.4924 59.0621 49.5455 58.2743 49.9404C57.4865 50.3353 57.2502 51.362 57.2502 51.6516C57.2502 51.9412 57.8804 51.9412 57.8804 52.4677C57.8804 52.9942 57.1189 53.8893 57.1189 53.8893C57.1189 53.8893 57.6703 54.4158 57.6703 54.9423C57.6703 55.4688 56.7775 56.1796 56.7775 56.1796C56.7775 56.1796 56.6462 58.0751 56.6462 59.1281C56.6462 60.1812 52.8647 62.7348 47.6914 60.6287C42.5181 58.5226 27.9961 55.3899 33.6159 43.9644C39.2618 32.5652 50.3962 33.3024 50.3962 33.3024Z" fill="#FCBDA9"/>
<path d="M43.2007 51.6515C43.4633 51.9148 39.9969 53.8366 41.2574 57.9961C42.4916 62.1556 35.6377 59.4177 33.3268 56.2059C31.0159 52.9678 29.4403 45.386 31.8037 41.5687C34.1671 37.7514 34.2459 38.7255 36.5043 35.5664C38.7627 32.4073 50.6586 30.7751 52.917 33.9868C55.1754 37.1986 51.2363 42.0162 47.166 44.1223C43.0431 46.2547 43.2007 51.6515 43.2007 51.6515Z" fill="#111F59"/>
<path d="M52.1031 33.276C52.4445 33.276 59.6136 30.7487 58.8257 35.4611C58.0379 40.1734 53.2323 44.017 47.3237 45.228C41.3889 46.439 38.6053 48.2292 42.0979 50.4932C42.0979 50.4932 38.0801 50.0457 38.0801 47.9659C38.0801 45.8862 43.2008 43.4115 45.8269 42.0952C48.4267 40.8053 52.1031 33.276 52.1031 33.276Z" fill="#555699"/>
<path d="M46.168 49.2032C46.168 49.2032 45.9054 44.4909 43.2794 45.3597C40.6534 46.2284 42.3078 53.2311 44.7237 53.2311C47.1134 53.2311 46.168 49.2032 46.168 49.2032Z" fill="#FCBDA9"/>
<path d="M44.9604 48.5714C44.9604 48.5714 44.5664 45.9125 43.4898 46.4654C42.3868 47.0445 42.5707 52.0991 43.9625 51.8359C45.3543 51.5989 44.9604 48.5714 44.9604 48.5714Z" fill="#FCBDA9"/>
<path d="M54.9914 53.7313C55.6479 54.0209 56.4357 54.0736 57.1185 53.8629C56.4357 54.1262 55.6479 54.2052 54.8601 53.9419C54.7813 53.9156 54.7551 53.8366 54.7813 53.784C54.8076 53.705 54.8864 53.6787 54.9389 53.705C54.9652 53.7313 54.9652 53.7313 54.9914 53.7313Z" fill="#B37E65"/>
<path d="M52.917 44.3329C52.917 44.3329 54.2825 42.885 55.3592 42.6218C56.4359 42.3585 55.8582 43.7801 55.8582 43.7801C55.8582 43.7801 56.0945 42.885 52.917 44.3329Z" fill="#172866"/>
<path d="M44.6448 53.9946C45.2684 53.9946 45.774 53.4878 45.774 52.8626C45.774 52.2374 45.2684 51.7305 44.6448 51.7305C44.0212 51.7305 43.5156 52.2374 43.5156 52.8626C43.5156 53.4878 44.0212 53.9946 44.6448 53.9946Z" fill="#111F59"/>
<path d="M100.579 74.6868L103.363 73.2125C103.363 73.2125 105.726 73.6074 105.648 74.2129C105.543 74.8447 103.416 74.3709 103.416 74.3709L99.8179 78.8463L100.579 74.6868Z" fill="#FCBDA9"/>
<path d="M105.227 74.6868C105.227 74.6868 101.945 76.1347 102.706 76.8982C103.468 77.6616 106.803 76.1084 106.54 74.9237C106.462 74.3972 105.227 74.6868 105.227 74.6868Z" fill="#FCBDA9"/>
<path d="M104.807 76.319C104.807 76.319 101.525 77.7669 102.286 78.5304C103.048 79.2938 106.383 77.7406 106.121 76.5559C106.042 76.0294 104.807 76.319 104.807 76.319Z" fill="#FCBDA9"/>
<path d="M54.3086 45.9651C54.3086 45.9651 54.9388 46.2284 54.9388 46.8339C54.9388 47.4394 54.3086 47.7553 54.3086 47.7553V45.9651Z" fill="#2846A6"/>
<path d="M52.3652 47.5974C52.3652 47.5974 53.3631 46.3337 54.0459 45.6492C54.7024 44.9911 56.6194 44.7278 56.6194 44.7278L52.3652 47.5974Z" fill="#172866"/>
<path d="M52.1028 33.276C52.3129 35.1978 52.1291 37.4618 51.3413 39.3047C51.0261 40.0944 50.606 40.542 50.5272 40.6473C48.7677 42.5427 45.3276 43.8064 42.8066 44.3329C49.8707 41.6213 50.2383 40.0681 50.4221 39.9365C50.9736 39.094 51.2887 38.199 51.5513 37.2512C51.8402 35.9613 52.024 34.6186 52.1028 33.276Z" fill="#7778AD"/>
<path d="M52.549 33.276C53.9408 33.3023 54.8336 34.9872 55.1225 36.4878C55.9891 40.7526 50.8421 43.8327 46.3516 44.5962C49.4765 43.5695 53.4681 41.7003 54.5448 38.5675C55.1488 36.8037 54.4135 33.6709 52.549 33.276Z" fill="#7778AD"/>
<path d="M40.8896 58.4963C42.3077 60.892 42.334 64.6566 39.6029 65.6043C38.5525 65.9465 34.5872 65.6306 35.2437 67.0522C35.9002 68.5528 39.4716 68.1579 40.4432 69.4479C40.6533 69.7112 40.7846 70.0797 40.7058 70.422C40.4432 71.8436 37.1344 71.9225 35.6638 71.8172C36.6617 71.7119 39.4453 71.3697 40.0493 70.5536C40.2856 70.2377 40.0493 69.8165 39.7342 69.6059C38.4474 68.8424 34.771 69.1846 34.3771 66.868C34.0357 64.8672 38.0273 65.1304 39.2615 64.9725C39.5241 64.9462 40.0756 64.7092 40.4695 64.3143C41.835 62.998 41.6249 60.2601 40.8896 58.4963Z" fill="#111F59"/>
</svg>
