<?xml version="1.0" encoding="UTF-8"?><svg id="Layer_1" xmlns="http://www.w3.org/2000/svg" viewBox="0 0 320.9 68.84"><defs><style>.cls-1{fill:#fff;}</style></defs><path class="cls-1" d="m1.62,65.99c-1.69-1.9-2.06-4.22-1.12-6.95L17.43,9.88c.94-2.73,2.91-5.05,5.91-6.95C26.38,1.02,29.59.07,32.95.07s5.89.95,7.58,2.85c1.73,1.9,2.13,4.22,1.19,6.95l-6.45,18.73h-9.14l6.75-19.61c.23-.68.14-1.24-.3-1.68-.37-.49-.99-.73-1.87-.73s-1.67.24-2.37.73c-.74.44-1.22,1-1.46,1.68L9.35,59.92c-.24.68-.13,1.24.3,1.68.47.49,1.09.73,1.87.73s1.57-.24,2.37-.73c.74-.44,1.22-1,1.46-1.68l6.75-19.61h9.14l-6.45,18.73c-.94,2.73-2.93,5.05-5.98,6.95-3,1.9-6.18,2.85-9.54,2.85s-5.91-.95-7.65-2.85Z"/><path class="cls-1" d="m37.82,61.16l-3.32,6.66h-9L57.53.95h8.93l-14.03,66.87h-9l1.27-6.66h-6.88Zm15.41-34.75l-11.79,27.43h4.68l7.11-27.43Z"/><path class="cls-1" d="m72.54,67.82l8.36-24.29c.44-1.27.33-2.16-.32-2.67-.65-.51-2.16-.74-4.52-.69l-9.52,27.65h-9.14L80.42.95h12.14c1.95,0,3.55.2,4.81.59,1.26.39,2.3,1.07,3.14,2.05.9.93,1.39,1.97,1.48,3.15.08,1.17-.1,2.41-.55,3.73l-7.15,20.78c-.39,1.12-.87,2.04-1.46,2.74-.59.71-1.14,1.26-1.67,1.65-.66.49-1.28.8-1.86.95.44.29.81.71,1.11,1.24.24.44.4,1.02.49,1.76.09.73-.05,1.63-.42,2.71l-8.79,25.53h-9.14Zm13.02-37.82c.42-1.36,1.04-3.19,1.85-5.49.81-2.29,1.6-4.54,2.35-6.73l2.8-8.12c.23-.68.14-1.24-.3-1.68-.43-.44-1.07-.66-1.9-.66h-3l-8.89,25.83c1.02,0,1.92-.02,2.7-.07.77-.05,1.43-.17,1.99-.37.55-.19,1.02-.5,1.41-.91.39-.41.71-1.01.98-1.79Z"/><path class="cls-1" d="m108.58,65.99c-1.69-1.9-2.06-4.22-1.12-6.95l16.93-49.16c.94-2.73,2.91-5.05,5.91-6.95,3.04-1.9,6.25-2.85,9.61-2.85s5.89.95,7.58,2.85c1.73,1.9,2.13,4.22,1.19,6.95l-6.45,18.73h-9.15l6.75-19.61c.23-.68.14-1.24-.3-1.68-.37-.49-.99-.73-1.87-.73s-1.67.24-2.37.73c-.74.44-1.22,1-1.46,1.68l-17.53,50.92c-.24.68-.13,1.24.3,1.68.47.49,1.09.73,1.87.73s1.57-.24,2.37-.73c.74-.44,1.22-1,1.46-1.68l6.75-19.61h9.15l-6.45,18.73c-.94,2.73-2.93,5.05-5.98,6.95-3,1.9-6.18,2.85-9.54,2.85s-5.92-.95-7.65-2.85Z"/><path class="cls-1" d="m144.78,61.16l-3.32,6.66h-9L164.49.95h8.93l-14.03,66.87h-9l1.27-6.66h-6.88Zm15.41-34.75l-11.79,27.43h4.68l7.11-27.43Z"/><path class="cls-1" d="m184.74,66.21c-2.78,1.71-5.81,2.56-9.08,2.56s-5.68-.85-7.39-2.56c-1.7-1.71-2.27-3.8-1.71-6.29l5.84-16.97,9.17-.07-5.84,16.97c-.23.68-.14,1.24.3,1.68.47.49,1.09.73,1.87.73.68,0,1.47-.24,2.37-.73.74-.44,1.22-1,1.46-1.68l6.6-19.17c.55-1.61-.07-2.41-1.88-2.41h-.59c-3.41,0-5.97-1.07-7.67-3.22-1.39-1.9-1.66-4.1-.8-6.58l6.4-18.58c.92-2.68,2.88-4.97,5.88-6.88,3.06-1.95,6.28-2.93,9.64-2.93s5.93.98,7.55,2.93c1.72,1.95,2.12,4.24,1.22,6.88l-4.58,13.32h-9.14l4.86-14.12c.25-.73.16-1.32-.27-1.76-.56-.49-1.19-.73-1.87-.73-.78,0-1.57.24-2.37.73-.74.44-1.23,1.02-1.48,1.76l-6.42,18.66c-.24.68-.19,1.24.15,1.68.32.49.89.73,1.72.73h1.68c2.58,0,4.52.54,5.81,1.61,1.03.83,1.68,2.05,1.96,3.66.19,1.85-.02,3.61-.64,5.27l-6.6,19.17-.03.07c-1.17,2.54-3.2,4.63-6.12,6.29Z"/><path class="cls-1" d="m204.16,67.82h-9L218.18.95h9l-10.23,29.7h6.44L233.62.95h9l-23.02,66.87h-9l10.28-29.85h-6.44l-10.28,29.85Z"/><path class="cls-1" d="m260.96,11.41c1.09-3.17,3.19-5.85,6.28-8.05,3.16-2.24,6.38-3.37,9.65-3.37s5.71,1.12,7.33,3.37c1.59,2.19,1.83,4.88.74,8.05l-5.26,15.29c-1.02,2.98-2.95,5.51-5.76,7.61,1.36,2.15,1.52,4.73.47,7.75l-5.29,15.36c-1.09,3.17-3.18,5.85-6.28,8.05-3.07,2.24-6.28,3.37-9.65,3.37s-5.81-1.12-7.33-3.37c-1.58-2.19-1.83-4.88-.74-8.05l4.91-14.27h8.85l-5.24,15.22c-.29.83-.22,1.56.2,2.19.35.54.99.8,1.92.8s1.78-.27,2.54-.8c.79-.59,1.33-1.32,1.63-2.19l5.97-17.34c.22-.63.2-1.13-.07-1.5-.27-.36-.6-.67-1-.91-.45-.24-1-.41-1.65-.51l2.52-7.32c.41-.05.8-.12,1.17-.22.33-.1.65-.19.98-.29.33-.1.64-.24.96-.44.83-.59,1.4-1.29,1.68-2.12l5.97-17.34c.29-.83.24-1.54-.15-2.12-.48-.59-1.14-.88-1.97-.88-.88,0-1.71.29-2.5.88-.85.63-1.41,1.34-1.68,2.12l-5.84,16.97h-8.78c.03-.1.49-1.46,1.37-4.1.88-2.63,2.23-6.58,4.04-11.85Z"/><path class="cls-1" d="m305.68.95l-13.53,39.29h6.22L311.9.95h9l-13.53,39.29h2.41l-2.52,7.32h-2.41l-6.98,20.27h-9l6.98-20.27h-13.39c-.63,0-1.07-.09-1.3-.26-.23-.17-.18-.74.15-1.72L296.68.95h9Z"/></svg>